<svg width="248" height="84" viewBox="0 0 248 84" fill="none" xmlns="http://www.w3.org/2000/svg">
<g id="Group 33">
<path id="Fill 1" fill-rule="evenodd" clip-rule="evenodd" d="M80.4964 25.2765C78.6043 23.3466 77.6584 21.0004 77.6584 18.1624C77.6584 15.3244 78.6043 12.9788 80.4964 11.0489C82.4263 9.11904 84.8102 8.17268 87.6482 8.17268C91.3189 8.17268 94.5726 10.0649 96.1238 13.0542L91.9237 15.514C91.1675 13.9623 89.5398 12.9788 87.6105 12.9788C84.6966 12.9788 82.5399 15.1354 82.5399 18.1624C82.5399 19.6382 83.0317 20.8873 83.9775 21.8708C84.9239 22.8166 86.1347 23.3089 87.6105 23.3089C89.578 23.3089 91.2047 22.3626 91.962 20.8113L96.1998 23.233C94.5349 26.2223 91.3189 28.1522 87.6482 28.1522C84.8102 28.1522 82.4263 27.2058 80.4964 25.2765Z" fill="#FEFEFE"/>
<mask id="mask0" mask-type="alpha" maskUnits="userSpaceOnUse" x="0" y="0" width="248" height="84">
<path id="Clip 4" fill-rule="evenodd" clip-rule="evenodd" d="M0 83.5758H247.3V0H0V83.5758Z" fill="white"/>
</mask>
<g mask="url(#mask0)">
<path id="Fill 3" fill-rule="evenodd" clip-rule="evenodd" d="M98.7719 27.6219H103.653V8.70242H98.7719V27.6219ZM98.2042 3.44338C98.2042 1.81622 99.5664 0.415802 101.194 0.415802C102.858 0.415802 104.221 1.81622 104.221 3.44338C104.221 5.06999 102.858 6.43271 101.194 6.43271C99.5664 6.43271 98.2042 5.06999 98.2042 3.44338Z" fill="#FEFEFE"/>
<path id="Fill 5" fill-rule="evenodd" clip-rule="evenodd" d="M112.999 11.9571C113.907 9.53546 116.178 8.32465 118.751 8.32465V13.7733C117.275 13.5842 115.913 13.8864 114.74 14.6814C113.567 15.4759 112.999 16.7626 112.999 18.5788V27.6222H108.118V8.70275H112.999V11.9571Z" fill="#FEFEFE"/>
<path id="Fill 6" fill-rule="evenodd" clip-rule="evenodd" d="M122.723 25.2765C120.831 23.3466 119.885 21.0004 119.885 18.1624C119.885 15.3244 120.831 12.9788 122.723 11.0489C124.652 9.11904 127.036 8.17268 129.874 8.17268C133.546 8.17268 136.799 10.0649 138.351 13.0542L134.151 15.514C133.394 13.9623 131.766 12.9788 129.837 12.9788C126.923 12.9788 124.767 15.1354 124.767 18.1624C124.767 19.6382 125.258 20.8873 126.204 21.8708C127.15 22.8166 128.361 23.3089 129.837 23.3089C131.805 23.3089 133.432 22.3626 134.189 20.8113L138.427 23.233C136.762 26.2223 133.546 28.1522 129.874 28.1522C127.036 28.1522 124.652 27.2058 122.723 25.2765Z" fill="#FEFEFE"/>
<path id="Fill 7" fill-rule="evenodd" clip-rule="evenodd" d="M153.637 8.7027H158.519V27.6222H153.637V25.5032C152.465 27.2817 150.572 28.1522 147.999 28.1522C145.918 28.1522 144.216 27.4714 142.853 26.0709C141.528 24.6711 140.848 22.7789 140.848 20.3196V8.7027H145.729V19.7142C145.729 22.2495 147.204 23.6116 149.475 23.6116C152.01 23.6116 153.637 22.0599 153.637 18.9192V8.7027Z" fill="#FEFEFE"/>
<path id="Fill 8" fill-rule="evenodd" clip-rule="evenodd" d="M162.983 27.6224H167.864V0H162.983V27.6224Z" fill="#FEFEFE"/>
<path id="Fill 9" fill-rule="evenodd" clip-rule="evenodd" d="M181.448 23.498C182.961 23.498 184.21 23.0062 185.194 22.0222C186.215 21.0004 186.707 19.7142 186.707 18.1624C186.707 16.6112 186.215 15.3244 185.194 14.3409C184.21 13.3192 182.961 12.8274 181.448 12.8274C179.935 12.8274 178.686 13.3192 177.702 14.3409C176.718 15.3244 176.226 16.6112 176.226 18.1624C176.226 19.7142 176.718 21.0004 177.702 22.0222C178.686 23.0062 179.935 23.498 181.448 23.498ZM186.707 8.70269H191.589V27.6221H186.707V25.3901C185.231 27.244 183.188 28.1522 180.54 28.1522C178.004 28.1522 175.847 27.2058 174.031 25.2765C172.253 23.3466 171.344 20.9627 171.344 18.1624C171.344 15.3627 172.253 13.0165 174.031 11.0866C175.847 9.15674 178.004 8.17268 180.54 8.17268C183.188 8.17268 185.231 9.08135 186.707 10.9353V8.70269Z" fill="#FEFEFE"/>
<path id="Fill 10" fill-rule="evenodd" clip-rule="evenodd" d="M200.896 11.9571C201.805 9.53546 204.074 8.32465 206.648 8.32465V13.7733C205.172 13.5842 203.81 13.8864 202.637 14.6814C201.464 15.4759 200.896 16.7626 200.896 18.5788V27.6222H196.015V8.70275H200.896V11.9571Z" fill="#FEFEFE"/>
<path id="Fill 11" fill-rule="evenodd" clip-rule="evenodd" d="M86.5886 51.8934C89.3506 52.4611 92.9454 53.7856 92.9077 57.8343C92.9077 59.7637 92.1892 61.2777 90.7128 62.3372C89.2752 63.3589 87.459 63.8884 85.3024 63.8884C81.4044 63.8884 78.7561 62.3749 77.3562 59.3856L81.594 57.0016C82.1617 58.6288 83.3726 59.461 85.3024 59.461C87.0427 59.461 87.9131 58.9315 87.9131 57.8343C87.9131 56.8126 86.3996 56.2454 84.4697 55.7531C81.6694 55.0341 78.1507 53.861 78.1507 49.9258C78.1507 48.0714 78.8315 46.5955 80.1936 45.5366C81.594 44.4395 83.2966 43.9095 85.3401 43.9095C88.4048 43.9095 91.0538 45.347 92.5296 47.9206L88.3671 50.1908C87.7617 48.9041 86.74 48.261 85.3401 48.261C84.0916 48.261 83.1452 48.8664 83.1452 49.8122C83.1452 50.8339 84.6588 51.4016 86.5886 51.8934Z" fill="#FEFEFE"/>
<path id="Fill 12" fill-rule="evenodd" clip-rule="evenodd" d="M111.676 45.9904C113.038 47.3903 113.72 49.2824 113.72 51.7423V63.3587H108.838V52.3477C108.838 49.8125 107.362 48.4503 105.092 48.4503C102.557 48.4503 100.93 50.0015 100.93 53.1422V63.3587H96.0486V36.8711H100.93V46.5581C102.103 44.7796 103.995 43.9092 106.568 43.9092C108.649 43.9092 110.352 44.5906 111.676 45.9904Z" fill="#FEFEFE"/>
<path id="Fill 13" fill-rule="evenodd" clip-rule="evenodd" d="M117.881 63.3585H122.762V44.439H117.881V63.3585ZM117.313 39.1794C117.313 37.5528 118.675 36.1524 120.303 36.1524C121.967 36.1524 123.33 37.5528 123.33 39.1794C123.33 40.8066 121.967 42.1688 120.303 42.1688C118.675 42.1688 117.313 40.8066 117.313 39.1794Z" fill="#FEFEFE"/>
<path id="Fill 14" fill-rule="evenodd" clip-rule="evenodd" d="M137.406 41.0339C134.719 40.8443 133.395 41.9037 133.395 44.2499V44.4395H137.406V49.1309H133.395V63.359H128.513V49.1309H125.788V44.4395H128.513V44.2499C128.513 38.9149 131.503 36.001 137.406 36.3414V41.0339Z" fill="#FEFEFE"/>
<path id="Fill 15" fill-rule="evenodd" clip-rule="evenodd" d="M151.064 49.1311H146.789V57.0014C146.789 59.0449 148.264 59.0826 151.064 58.9318V63.3587C144.367 64.1154 141.907 62.1855 141.907 57.0014V49.1311H138.615V44.4392H141.907V40.6177L146.789 39.1414V44.4392H151.064V49.1311Z" fill="#FEFEFE"/>
<path id="Fill 16" fill-rule="evenodd" clip-rule="evenodd" d="M163.681 63.3587V61.5242L173.503 51.4341C176.37 48.4526 177.822 45.93 177.822 43.8666C177.822 40.3123 175.299 38.1335 171.936 38.1335C168.955 38.1335 166.814 39.4713 165.554 42.1851L163.833 41.1528C165.401 37.9423 168.382 36.1842 171.936 36.1842C174.115 36.1842 175.949 36.8723 177.516 38.2483C179.083 39.6237 179.885 41.4965 179.885 43.8666C179.885 46.9241 178.051 49.6756 174.879 52.8861L166.585 61.4095H180.497V63.3587H163.681Z" fill="#FEFEFE"/>
<path id="Fill 17" fill-rule="evenodd" clip-rule="evenodd" d="M193.834 61.8298C196.319 61.8298 198.268 60.7981 199.682 58.734C201.096 56.6323 201.784 53.7272 201.784 49.9817C201.784 46.2362 201.096 43.3317 199.682 41.2677C198.268 39.1654 196.319 38.1336 193.834 38.1336C191.35 38.1336 189.401 39.1654 187.987 41.2677C186.572 43.3317 185.885 46.2362 185.885 49.9817C185.885 53.7272 186.572 56.6323 187.987 58.734C189.401 60.7981 191.35 61.8298 193.834 61.8298ZM193.834 63.7796C190.662 63.7796 188.216 62.5178 186.458 60.0335C184.7 57.5493 183.821 54.1863 183.821 49.9817C183.821 45.7777 184.7 42.4141 186.458 39.9299C188.216 37.4456 190.662 36.1844 193.834 36.1844C197.007 36.1844 199.453 37.4456 201.211 39.9299C202.969 42.4141 203.848 45.7777 203.848 49.9817C203.848 54.1863 202.969 57.5493 201.211 60.0335C199.453 62.5178 197.007 63.7796 193.834 63.7796Z" fill="#FEFEFE"/>
<path id="Fill 18" fill-rule="evenodd" clip-rule="evenodd" d="M207.132 63.3587V61.5242L216.955 51.4341C219.822 48.4526 221.274 45.93 221.274 43.8666C221.274 40.3123 218.751 38.1335 215.388 38.1335C212.406 38.1335 210.266 39.4713 209.005 42.1851L207.285 41.1528C208.852 37.9423 211.833 36.1842 215.388 36.1842C217.566 36.1842 219.401 36.8723 220.967 38.2483C222.535 39.6237 223.337 41.4965 223.337 43.8666C223.337 46.9241 221.503 49.6756 218.331 52.8861L210.037 61.4095H223.949V63.3587H207.132Z" fill="#FEFEFE"/>
<path id="Fill 19" fill-rule="evenodd" clip-rule="evenodd" d="M237.286 61.8298C239.77 61.8298 241.72 60.7981 243.134 58.734C244.548 56.6323 245.236 53.7272 245.236 49.9817C245.236 46.2362 244.548 43.3317 243.134 41.2677C241.72 39.1654 239.77 38.1336 237.286 38.1336C234.802 38.1336 232.852 39.1654 231.438 41.2677C230.024 43.3317 229.336 46.2362 229.336 49.9817C229.336 53.7272 230.024 56.6323 231.438 58.734C232.852 60.7981 234.802 61.8298 237.286 61.8298ZM237.286 63.7796C234.114 63.7796 231.668 62.5178 229.909 60.0335C228.151 57.5493 227.272 54.1863 227.272 49.9817C227.272 45.7777 228.151 42.4141 229.909 39.9299C231.668 37.4456 234.114 36.1844 237.286 36.1844C240.458 36.1844 242.904 37.4456 244.663 39.9299C246.421 42.4141 247.3 45.7777 247.3 49.9817C247.3 54.1863 246.421 57.5493 244.663 60.0335C242.904 62.5178 240.458 63.7796 237.286 63.7796Z" fill="#FEFEFE"/>
<path id="Fill 20" fill-rule="evenodd" clip-rule="evenodd" d="M8.79608 14.5839C2.46206 23.2065 2.49033 34.1653 8.86815 42.5035C14.7792 50.2307 24.2522 53.3082 33.5112 50.6881L33.7042 49.9446L33.4674 50.6892C33.4613 50.6875 33.4558 50.6864 33.4497 50.6847L33.4486 50.6881L33.412 50.6753C33.3566 50.6592 33.2994 50.6393 33.2529 50.6188L33.1636 50.5872C33.0145 50.5312 32.8637 50.4741 32.7162 50.4136C32.6392 50.3831 32.5438 50.3443 32.449 50.305C32.245 50.2257 32.0271 50.1337 31.8092 50.035C31.7976 50.0306 31.7865 50.0256 31.7765 50.0206C31.7704 50.0184 31.7643 50.0156 31.7582 50.0134L31.4838 49.8903C30.1432 49.2694 28.9136 48.5675 27.8076 47.7947C27.5254 47.6056 27.2443 47.4032 26.9848 47.2009C26.9743 47.1937 26.9643 47.1865 26.9543 47.1787C26.9266 47.1588 26.8983 47.1371 26.8712 47.1144C26.8163 47.075 26.7636 47.0351 26.711 46.9913C25.9093 46.3804 25.1381 45.7062 24.4451 45.0094L24.4063 44.9722C24.342 44.9101 24.2755 44.8441 24.2211 44.782L24.2029 44.7676C24.1507 44.7183 24.0981 44.6662 24.0532 44.6157C24.0188 44.5819 23.9877 44.5498 23.96 44.5182C23.8885 44.4489 23.822 44.3779 23.7549 44.3053C23.7427 44.2942 23.7105 44.2604 23.6778 44.2221C23.6047 44.1445 23.5337 44.0635 23.4633 43.9832H23.4638C23.4633 43.9832 23.4411 43.9599 23.4195 43.9349C23.3502 43.8601 23.2903 43.7947 23.236 43.7304C23.1894 43.6827 23.1484 43.6339 23.1107 43.5829C23.068 43.5391 23.0309 43.4975 22.9993 43.457C22.9067 43.3545 22.818 43.2458 22.7354 43.1344L22.6611 43.0479C22.6117 42.9908 22.5629 42.9342 22.5186 42.8777C22.4293 42.7685 22.3318 42.6437 22.2347 42.519C22.2292 42.5112 22.1998 42.4741 22.1943 42.4663L22.1078 42.3504C22.0568 42.2828 22.0052 42.2141 21.957 42.1448C21.9548 42.142 21.9525 42.1387 21.9503 42.1359L21.7968 41.928C21.7618 41.8842 21.7153 41.8177 21.6692 41.7511C21.6449 41.719 21.606 41.6641 21.5689 41.6098L21.3981 41.362C21.3721 41.327 21.3361 41.2705 21.2984 41.2089C21.2457 41.1396 21.1703 41.0265 21.1021 40.9134C21.0788 40.8841 21.0322 40.8081 20.9868 40.7327C20.9585 40.6861 20.9313 40.6396 20.8997 40.5947C20.8831 40.5714 20.8681 40.547 20.8543 40.5215L20.7329 40.3252C20.7201 40.3075 20.7079 40.2892 20.6968 40.2709L20.5804 40.0724C20.53 39.9865 20.4806 39.9006 20.4285 39.8168L20.3054 39.6001C20.2206 39.4548 20.1369 39.3079 20.0637 39.1577L20.0171 39.0767C20.0116 39.0673 19.9889 39.0235 19.9844 39.0146L19.8142 38.682C19.8015 38.662 19.7898 38.641 19.7787 38.6204C19.4888 38.0455 19.2083 37.4263 18.9227 36.7277C18.9155 36.71 18.9089 36.6922 18.9033 36.6745C16.1325 29.8886 16.6026 22.2379 20.1951 15.6755C23.7854 9.11694 29.9758 4.60745 37.1786 3.30184C37.3998 3.25693 37.6326 3.21313 37.8755 3.17876C37.9115 3.17045 37.9559 3.16268 38.0041 3.15825C38.248 3.11722 38.4958 3.08507 38.747 3.05624C38.9471 3.02797 39.1722 3.00413 39.4006 2.98417C39.7188 2.94758 40.0642 2.92263 40.4069 2.90822C40.6425 2.89158 40.8964 2.87495 41.147 2.87883C41.3471 2.86941 41.5744 2.86553 41.7962 2.87052C41.8655 2.86885 41.9475 2.86774 42.0329 2.87107C42.2109 2.86774 42.4082 2.87218 42.6117 2.88382C42.6677 2.88105 42.778 2.88715 42.88 2.89325C42.9416 2.89546 43.0048 2.89768 43.0691 2.90101C41.5267 2.51404 39.9123 2.23517 38.2502 2.0683C38.2303 2.06774 38.2131 2.06664 38.1954 2.06442C33.4852 1.61147 28.6242 2.18251 24.1363 3.71653C24.1169 3.72651 24.0537 3.74758 23.9983 3.76199C23.3214 3.99484 22.5602 4.29033 21.723 4.64903L21.5085 4.74439C21.4037 4.78819 21.3466 4.81591 21.2889 4.84252C21.2679 4.8525 21.2462 4.86192 21.2241 4.86968C21.1986 4.8841 21.1725 4.8974 21.1459 4.90849C21.0151 4.96393 20.8837 5.02547 20.7528 5.08756L20.7423 5.09255C20.7207 5.10364 20.6996 5.11417 20.6774 5.12415C19.6024 5.63087 18.4914 6.23462 17.3909 6.91154L16.5261 7.46705C16.5161 7.47425 16.5061 7.48146 16.4961 7.48756C16.2905 7.62394 16.0848 7.76587 15.8852 7.90835C15.7721 7.98375 15.6812 8.04917 15.5936 8.11625C15.5731 8.13177 15.552 8.14674 15.5304 8.16005C15.4954 8.18555 15.465 8.20717 15.4356 8.22547C15.3785 8.26705 15.2842 8.33357 15.1933 8.40343C15.1085 8.4633 15.0492 8.50932 14.9915 8.55367L14.9067 8.61576C14.9017 8.61964 14.8967 8.62408 14.8917 8.62796C14.8828 8.63517 14.8745 8.64182 14.8656 8.64847C13.865 9.40966 12.9835 10.1526 12.1707 10.9198C11.6246 11.4338 11.1528 11.9028 10.7282 12.3569C10.3944 12.6995 10.0745 13.051 9.73856 13.4424C9.45803 13.76 9.19691 14.076 8.94466 14.397C8.88478 14.4669 8.85318 14.509 8.81936 14.5528C8.81659 14.5567 8.81326 14.5617 8.80938 14.5661C8.80495 14.5722 8.80051 14.5778 8.79608 14.5839ZM26.981 53.1807C19.506 53.1812 12.4518 49.7744 7.62019 43.4581C0.807173 34.5517 0.771692 22.8528 7.52983 13.653L7.54202 13.637C7.54812 13.6286 7.55478 13.6198 7.56143 13.6109C7.62518 13.5277 7.67563 13.4623 7.73274 13.3969C7.9994 13.0565 8.2755 12.725 8.55325 12.4101C8.90308 12.002 9.2457 11.6267 9.59164 11.2713C10.0291 10.804 10.5236 10.3117 11.093 9.77612C11.9434 8.97335 12.8637 8.19719 13.9054 7.4044C13.9082 7.40218 13.9115 7.39996 13.9137 7.39775C13.9348 7.38056 13.9559 7.36448 13.9781 7.34896L14.482 7.95436L14.0318 7.3096C14.1083 7.25028 14.1871 7.18985 14.2663 7.13441C14.3473 7.07231 14.4559 6.9947 14.5657 6.91764C14.6084 6.8877 14.6367 6.86774 14.6589 6.85277C14.767 6.77017 14.879 6.69033 14.9937 6.61438C15.1789 6.48132 15.3884 6.33662 15.5991 6.19692C15.6097 6.18915 15.6202 6.18195 15.6302 6.17529L16.5549 5.58098C17.7175 4.86525 18.8801 4.23379 20.0227 3.69546C20.046 3.68271 20.0726 3.66996 20.1003 3.65776C20.2284 3.59733 20.3564 3.53746 20.4845 3.48202C20.541 3.45319 20.5937 3.4288 20.6486 3.40717C20.7218 3.3728 20.7955 3.33898 20.8726 3.30794C20.8859 3.30018 20.9435 3.27467 21.0012 3.24973L21.0866 3.21203C21.978 2.83004 22.7758 2.52069 23.5426 2.25901L23.8824 2.97253L23.6279 2.22907C28.3215 0.624641 33.4042 0.0269981 38.3312 0.498793C38.3517 0.50101 38.3711 0.50101 38.3899 0.503228C40.5665 0.719998 42.6688 1.12249 44.638 1.69851C44.9995 1.80052 45.3682 1.91196 45.7341 2.03282C45.9026 2.08382 46.0845 2.14425 46.2663 2.21189C46.4476 2.26567 46.6622 2.34494 46.88 2.42589L47.0796 2.49962C47.1256 2.51348 47.1683 2.52956 47.211 2.5473C47.3912 2.60995 47.5675 2.67758 47.7399 2.7491C48.0032 2.85167 48.2865 2.96365 48.5626 3.08285C48.5726 3.08673 48.6181 3.10669 48.6275 3.11113C50.1543 3.76365 51.5686 4.4816 52.9197 5.29213C53.0289 5.35478 53.1475 5.42852 53.2684 5.50392L53.3959 5.58264C53.4048 5.58818 53.4136 5.59317 53.422 5.59872L53.4358 5.60703C53.6609 5.7473 53.8899 5.89144 54.1116 6.04168C54.2497 6.12983 54.4021 6.23295 54.5546 6.33552C54.5729 6.34494 54.6178 6.37654 54.6699 6.4159C54.8429 6.529 55.0109 6.6482 55.1783 6.76739C55.2243 6.79456 55.2919 6.8439 55.3557 6.89546C55.5952 7.06566 55.8347 7.24196 56.0709 7.42103C56.1208 7.45651 56.1845 7.50308 56.2488 7.55686C56.4091 7.67938 56.602 7.82852 56.7916 7.98042C57.1242 8.24709 57.183 8.73163 56.9235 9.07037C56.6646 9.40966 56.1818 9.47952 55.8369 9.22782L55.7898 9.19456C55.1783 8.7272 54.6538 8.36018 54.1471 8.04362C52.4323 6.94591 50.5762 6.08437 48.622 5.47786C48.6014 5.47121 48.5809 5.464 48.5604 5.45568L48.3298 5.3886C48.2139 5.35423 48.0986 5.32041 47.9827 5.28881C47.7732 5.22672 47.5797 5.18015 47.3834 5.13413C47.0081 5.03434 46.6561 4.95672 46.2985 4.8841L46.202 4.8658C46.0235 4.83254 45.8433 4.79816 45.6626 4.77266C45.4319 4.72831 45.2434 4.69615 45.0488 4.67564C45.0272 4.67342 45.0056 4.6701 44.984 4.66622C44.9258 4.65513 44.8703 4.64681 44.8077 4.64072C44.6175 4.61022 44.4789 4.59581 44.337 4.58417C44.2372 4.57031 44.184 4.56254 44.1324 4.56144C44.1053 4.56088 44.0781 4.55866 44.0515 4.55534C43.8619 4.5315 43.6734 4.51376 43.481 4.50433C43.4566 4.50322 43.4317 4.50101 43.4067 4.49713C43.3862 4.49713 43.3657 4.49602 43.3452 4.49435C43.1656 4.47883 42.9859 4.46941 42.8035 4.46275C42.7182 4.45776 42.6483 4.45388 42.5779 4.45388C42.3567 4.44335 42.1931 4.43947 42.0196 4.44169C41.9243 4.44002 41.8655 4.44113 41.7945 4.44169C41.5772 4.43836 41.3815 4.44058 41.1802 4.44945C40.9291 4.45 40.7129 4.4622 40.4939 4.47717C40.1685 4.49158 39.8602 4.51376 39.5575 4.54813C39.3358 4.56753 39.1373 4.58805 38.9455 4.61466C38.6921 4.64404 38.4593 4.67453 38.2297 4.7139C38.2081 4.71778 38.1865 4.72055 38.1649 4.72221C38.1482 4.72554 38.1283 4.72942 38.1266 4.72997C37.8827 4.7649 37.6803 4.80371 37.4741 4.84529C30.7248 6.06829 24.9347 10.2901 21.5733 16.43C18.2015 22.59 17.7652 29.7683 20.3769 36.1256C20.3841 36.1439 20.3908 36.1622 20.3969 36.1805C20.6514 36.7992 20.8997 37.3503 21.1553 37.8598C21.1659 37.8764 21.1758 37.8936 21.1847 37.9108L21.4325 38.3887C21.4397 38.4009 21.4702 38.4563 21.4763 38.4691C21.5334 38.5861 21.5999 38.7003 21.6659 38.8145L21.7862 39.0257C21.8267 39.09 21.8821 39.1859 21.9381 39.2813L22.0318 39.441C22.0351 39.4459 22.0379 39.4504 22.0407 39.4554L22.1305 39.5956C22.1333 39.5995 22.1715 39.6638 22.1743 39.6677L22.2009 39.7132C22.2475 39.7808 22.2896 39.8501 22.3318 39.92C22.36 39.966 22.3872 40.0125 22.4188 40.058C22.4914 40.1744 22.5397 40.2459 22.5907 40.3147C22.604 40.333 22.6167 40.3524 22.6284 40.3712C22.6533 40.4117 22.6644 40.4322 22.6788 40.4516L22.8618 40.7166C22.8856 40.751 22.9094 40.7865 22.9338 40.8181C22.9904 40.899 23.0175 40.9395 23.0475 40.9778L23.1922 41.1729C23.2077 41.1912 23.2216 41.2106 23.2349 41.23C23.2742 41.2882 23.3175 41.3448 23.3602 41.4008L23.4683 41.546C23.5647 41.6685 23.654 41.7839 23.7438 41.8936C23.7832 41.9435 23.8175 41.9829 23.8525 42.0228C23.8952 42.0732 23.9384 42.1237 23.9794 42.1747C24.0559 42.2773 24.1186 42.3532 24.184 42.4247C24.2001 42.4425 24.215 42.4602 24.23 42.4796C24.2783 42.529 24.3154 42.5705 24.3492 42.6143C24.3703 42.6343 24.4047 42.6775 24.423 42.7003C24.4662 42.7524 24.515 42.8045 24.561 42.8544C24.5649 42.8594 24.5976 42.8954 24.602 42.8999C24.617 42.9148 24.6314 42.932 24.6453 42.9475C24.7085 43.0196 24.7711 43.0917 24.8371 43.161C24.8543 43.1793 24.8715 43.1987 24.887 43.2197C24.9663 43.3007 25.0167 43.355 25.0722 43.4077C25.0954 43.4299 25.1171 43.4532 25.1381 43.4781C25.1381 43.4787 25.1786 43.5186 25.1792 43.5186C25.2008 43.5402 25.2213 43.5629 25.2407 43.5873L25.2834 43.6261C25.3178 43.6594 25.3516 43.6915 25.381 43.722C25.432 43.7797 25.4663 43.8107 25.4974 43.8412L25.5545 43.8961C26.202 44.5475 26.9194 45.174 27.6911 45.7628C27.7488 45.8105 27.781 45.8326 27.812 45.8548C27.8353 45.872 27.8597 45.8914 27.8824 45.9114C27.8852 45.9136 27.888 45.9158 27.8913 45.918C27.9068 45.9285 27.9223 45.9396 27.9367 45.9507C28.1851 46.1442 28.439 46.3261 28.6957 46.4985C29.7385 47.2264 30.8878 47.8823 32.1241 48.4549L32.3836 48.5714V48.5719C32.3974 48.5775 32.4113 48.583 32.4235 48.5886C32.4335 48.593 32.4435 48.5974 32.4529 48.6019C32.6469 48.6895 32.841 48.771 33.035 48.8469L33.3033 48.9556C33.4475 49.0154 33.5816 49.0648 33.7136 49.1147L33.8428 49.1629C33.8433 49.1629 33.8439 49.1635 33.8444 49.1635C33.8694 49.1701 33.8938 49.1784 33.9182 49.1873L34.2674 49.3109C34.5114 49.3985 34.7553 49.4867 35.0048 49.5527C35.0519 49.5643 35.1096 49.5804 35.1645 49.6003C35.1872 49.6064 35.2132 49.6136 35.2293 49.6192C35.2443 49.6236 35.2587 49.6292 35.2737 49.6353C35.2759 49.6358 35.2781 49.6369 35.2798 49.6375C35.3219 49.6502 35.364 49.6646 35.4084 49.6752C35.4295 49.6807 35.45 49.6868 35.4699 49.6929C35.7626 49.7766 36.0049 49.8409 36.2494 49.903C36.5815 49.9873 36.8204 50.2761 36.841 50.6171C36.862 50.9592 36.6591 51.2746 36.3403 51.3977C33.2346 52.5985 30.0712 53.1807 26.981 53.1807Z" fill="#FEFEFE"/>
<path id="Fill 21" fill-rule="evenodd" clip-rule="evenodd" d="M67.4383 42.9281C67.4389 43.029 67.4333 43.1283 67.4278 43.2214C67.4256 43.2802 67.4233 43.3406 67.4206 43.4021C67.6013 42.6703 67.7588 41.9291 67.8935 41.179C68.4828 37.8022 68.5649 34.4247 68.1363 31.1427C68.1324 31.1133 68.1302 31.0834 68.1297 31.0534C68.0615 30.5445 67.9949 30.0782 67.9123 29.6198C67.8901 29.5117 67.8768 29.4446 67.8669 29.3769L67.7826 28.9168C67.7721 28.8758 67.7588 28.8059 67.7454 28.7277C67.6418 28.2299 67.5265 27.7204 67.3967 27.2004C67.3468 26.9974 67.2958 26.8029 67.2404 26.6105C67.17 26.3438 67.1029 26.1026 67.0281 25.8526C67.0042 25.7656 66.9854 25.6963 66.9615 25.6281C66.8179 25.1557 66.6771 24.7128 66.5219 24.277C66.5169 24.2631 66.5047 24.2243 66.5008 24.2099C66.5014 24.2116 66.5108 24.231 66.5208 24.2504C66.5058 24.2216 66.4925 24.1922 66.4814 24.1617L66.4238 24.0054C66.3722 23.8651 66.3218 23.7265 66.2674 23.5879C65.8954 22.5805 65.4707 21.5932 64.999 20.6396C64.3326 19.2608 63.5376 17.8914 62.6328 16.5636C62.615 16.5376 62.5984 16.5099 62.584 16.4816C62.5003 16.3624 62.4132 16.2393 62.329 16.119L62.1576 15.8812C60.8498 14.0677 59.3807 12.3995 57.784 10.9137C57.7657 10.896 57.748 10.8777 57.7308 10.8589C57.7164 10.8422 57.7003 10.8273 57.6825 10.8117C57.6698 10.8012 57.657 10.7901 57.6454 10.7785C57.3161 10.4619 56.9984 10.177 56.6752 9.9064L56.5421 9.79441C56.5272 9.78333 56.5127 9.77168 56.5055 9.76559C56.2616 9.56822 56.0343 9.38416 55.8142 9.21063L55.7898 9.19455C55.776 9.18513 55.751 9.16683 55.7377 9.1563C55.5342 8.99386 55.3191 8.84196 55.1062 8.69116L54.7769 8.45554C52.8681 7.15492 50.7913 6.14813 48.6231 5.47786C48.602 5.47176 48.5809 5.464 48.5604 5.45568L48.3298 5.3886C48.2139 5.35423 48.0986 5.32041 47.9828 5.28881C47.7732 5.22671 47.5803 5.18014 47.3834 5.13413C47.0081 5.03434 46.6561 4.95672 46.2985 4.88409L46.202 4.8658C46.0235 4.83253 45.8433 4.79816 45.6626 4.77266C45.432 4.72831 45.2435 4.69615 45.0489 4.67564C45.0272 4.67342 45.0056 4.6701 44.984 4.66621C44.9258 4.65513 44.8703 4.64681 44.8077 4.64071C44.6331 4.61854 44.4751 4.59858 44.3204 4.5825C44.2372 4.5703 44.184 4.56254 44.1324 4.56143C44.1053 4.56088 44.0781 4.55866 44.0515 4.55533C43.8625 4.5315 43.6734 4.51375 43.481 4.50433C43.4566 4.50322 43.4317 4.501 43.4067 4.49712C43.3862 4.49712 43.3657 4.49601 43.3452 4.49435C43.1656 4.47883 42.9859 4.4694 42.8035 4.46275C42.7182 4.45776 42.6483 4.45222 42.5779 4.45388C42.3589 4.44667 42.1871 4.44279 42.0063 4.44224C41.9248 4.44002 41.865 4.44113 41.7945 4.44168C41.5717 4.43891 41.376 4.44113 41.1803 4.44944C40.9291 4.45 40.7129 4.4622 40.4939 4.47716C40.1685 4.49158 39.8602 4.51375 39.5575 4.54813C39.3358 4.56753 39.1373 4.58804 38.9455 4.61466C38.6921 4.64404 38.4593 4.67453 38.2297 4.71389C38.2081 4.71777 38.1865 4.72055 38.1649 4.72221C38.1483 4.72554 38.1283 4.72942 38.1266 4.72997C37.8827 4.7649 37.6803 4.80371 37.4741 4.84529C30.7243 6.0694 24.9341 10.2906 21.5734 16.43C18.5918 21.8753 17.906 28.1184 19.5925 33.8875C20.3714 31.6938 21.4591 29.6103 22.7953 27.7658C22.8119 27.7381 22.8529 27.6766 22.9039 27.6145C23.0913 27.3484 23.3197 27.0529 23.5576 26.7607C23.603 26.6959 23.6751 26.6055 23.7555 26.5151C29.8716 19.0607 39.5038 15.8939 48.8737 18.2767C58.248 20.659 65.2002 28.0297 67.0175 37.5128C67.0641 37.7412 67.1079 37.974 67.1423 38.2179C67.1517 38.254 67.1617 38.3094 67.1672 38.371C67.2382 38.7973 67.2964 39.2641 67.3369 39.7437C67.3973 40.2881 67.4333 40.8785 67.4416 41.4767C67.4511 41.6702 67.4538 41.8848 67.4511 42.1015C67.4561 42.1847 67.4544 42.2606 67.4511 42.3371C67.4494 42.5561 67.4483 42.7413 67.4383 42.9281ZM61.7402 57.4135C61.555 57.4135 61.3687 57.3486 61.2196 57.2167C60.9252 56.9556 60.8714 56.5215 61.0821 56.1988C61.0904 56.1849 61.0993 56.1711 61.1082 56.1578C61.1276 56.1278 61.1536 56.0924 61.1802 56.0613V56.0608C61.2523 55.9759 61.3155 55.8889 61.3798 55.7969C61.7058 55.3622 62.0024 54.9298 62.2774 54.489C63.3807 52.7665 64.2416 50.9109 64.8426 48.965C64.9008 48.797 64.9407 48.6518 64.9807 48.5082L65.0355 48.3147C65.0516 48.2615 65.061 48.2371 65.0671 48.2071C65.1187 48.0148 65.1531 47.8695 65.1869 47.7248C65.2867 47.3495 65.3637 46.998 65.4369 46.6398L65.4563 46.5373C65.489 46.3615 65.5229 46.183 65.5484 46.0051C65.5938 45.7694 65.626 45.5776 65.6493 45.3769C65.652 45.3547 65.6559 45.3331 65.6598 45.3109C65.6703 45.2616 65.6742 45.2073 65.6803 45.1491C65.7108 44.9589 65.7252 44.8203 65.7369 44.6784C65.7391 44.6523 65.7424 44.6251 65.7479 44.5985C65.7552 44.5586 65.759 44.5148 65.7601 44.471C65.7607 44.445 65.7624 44.4195 65.7657 44.394C65.789 44.2049 65.8073 44.0153 65.8167 43.8235C65.8178 43.7985 65.82 43.7736 65.8233 43.7481C65.8239 43.7281 65.825 43.7071 65.8267 43.6866C65.8422 43.5075 65.8516 43.3279 65.8583 43.1455C65.8633 43.0606 65.8677 42.9913 65.8671 42.922C65.8666 42.9032 65.8671 42.8849 65.8683 42.866C65.8777 42.6975 65.8777 42.5317 65.8788 42.3621L65.881 42.2762C65.8821 42.2495 65.8849 42.2229 65.8821 42.1924C65.8799 42.1653 65.8788 42.1376 65.8793 42.1109C65.8827 41.9147 65.8799 41.719 65.871 41.5233C65.8627 40.9511 65.8294 40.4112 65.7729 39.8961C65.7335 39.4371 65.6803 39.0091 65.6093 38.5683L66.3716 38.3638L65.5911 38.468C65.5561 38.224 65.5173 38.0217 65.4757 37.816C63.7726 28.9306 57.2634 22.03 48.4867 19.7997C39.7139 17.5699 30.6949 20.5337 24.9513 27.5347C24.8848 27.6101 24.8438 27.6627 24.8022 27.7198C24.5594 28.0192 24.352 28.2875 24.1535 28.5658C24.1108 28.6213 24.102 28.6374 24.0914 28.6529C22.3795 31.0185 21.1154 33.7589 20.413 36.6124C20.3315 36.9423 20.0471 37.1829 19.7084 37.2078C19.3696 37.2378 19.0519 37.0371 18.9233 36.7227C16.1308 29.923 16.5943 22.2518 20.1946 15.6755C23.7849 9.11805 29.9753 4.608 37.1786 3.30184C37.3998 3.25693 37.6327 3.21313 37.8755 3.17876C37.9115 3.17044 37.9559 3.16268 38.0041 3.15825C38.2486 3.11722 38.4959 3.08507 38.747 3.05624C38.9471 3.02796 39.1722 3.00412 39.4006 2.98417C39.7189 2.94757 40.0643 2.92263 40.4069 2.90821C40.6425 2.89158 40.8964 2.87495 41.147 2.87883C41.341 2.86996 41.5689 2.86663 41.7956 2.87051C41.8655 2.86885 41.9476 2.86774 42.0329 2.87107C42.2114 2.87107 42.3994 2.8755 42.5979 2.88271C42.6688 2.88049 42.778 2.88715 42.8801 2.89324C43.0547 2.89934 43.2437 2.90932 43.4339 2.92429C43.5004 2.93482 43.5553 2.93039 43.603 2.93704C43.8076 2.94813 44.0099 2.96698 44.2117 2.99193C44.3193 2.99636 44.4279 3.00967 44.5233 3.02464C44.653 3.03739 44.8227 3.05845 44.9857 3.07952C45.0649 3.08673 45.152 3.09948 45.2429 3.11611C45.4746 3.14161 45.6997 3.17931 45.9254 3.22367C46.0873 3.24584 46.2907 3.28354 46.4925 3.32124L46.5995 3.3412C47.0009 3.42325 47.3829 3.50752 47.7654 3.60953C47.9683 3.65721 48.1895 3.71098 48.4141 3.77696C48.5244 3.80745 48.6497 3.84459 48.775 3.88174L49.0106 3.95048C49.0522 3.96324 49.0827 3.97377 49.1126 3.98486C51.4211 4.70114 53.6315 5.77335 55.6823 7.17155L56.0138 7.40828C56.2527 7.57681 56.4922 7.74757 56.719 7.92886L56.7622 7.95824C57.0112 8.15284 57.2446 8.34133 57.4624 8.51985C57.4785 8.53205 57.494 8.54424 57.5018 8.5509L57.6864 8.70336C58.029 8.98998 58.3678 9.29379 58.717 9.6292C58.7764 9.68021 58.8296 9.73177 58.8795 9.7861C60.5416 11.3362 62.0712 13.0742 63.4256 14.952L63.5708 15.1538C63.5758 15.1605 63.6102 15.2092 63.6146 15.2153C63.7072 15.3478 63.802 15.482 63.8913 15.6167C63.9051 15.635 63.9273 15.6672 63.95 15.706C64.8903 17.0892 65.7186 18.5168 66.411 19.9488C66.9039 20.9462 67.3513 21.9846 67.736 23.0296C67.7887 23.1632 67.8436 23.3129 67.899 23.4637L67.945 23.5879C67.97 23.645 67.9899 23.7049 68.0088 23.7681C68.1657 24.2099 68.3148 24.6767 68.4556 25.1413C68.4817 25.2134 68.5105 25.3171 68.5388 25.4207C68.6131 25.6685 68.6852 25.9258 68.7561 26.1947C68.8121 26.3909 68.8687 26.6049 68.9224 26.8228C69.0566 27.3606 69.1764 27.89 69.2895 28.4372C69.3022 28.5093 69.31 28.5487 69.3194 28.5891L69.4164 29.1169C69.4275 29.1868 69.4358 29.2245 69.4436 29.2622L69.4569 29.3298C69.5445 29.8149 69.6138 30.2961 69.6759 30.774C69.6914 30.8522 69.6975 30.9226 69.6997 30.9786C70.1427 34.4059 70.0556 37.9297 69.4408 41.4523C68.9552 44.1689 68.1729 46.7757 67.1157 49.2017C66.8368 49.8543 66.5313 50.5046 66.2103 51.1299C66.1504 51.2519 66.0828 51.3827 66.0163 51.5114L65.9115 51.7093C65.8189 51.8822 65.728 52.0519 65.6348 52.2199C65.5827 52.3219 65.5107 52.4483 65.4386 52.568C64.8387 53.6347 64.1402 54.7202 63.3152 55.8651L62.8207 56.5314C62.6688 56.7283 62.518 56.9151 62.3728 57.0958C62.3528 57.1219 62.3301 57.149 62.304 57.1757C62.1504 57.3342 61.9453 57.4135 61.7402 57.4135Z" fill="#FEFEFE"/>
<path id="Fill 22" fill-rule="evenodd" clip-rule="evenodd" d="M27.0897 67.8073C29.2602 68.3351 31.4728 68.64 33.7065 68.7198C35.3624 68.7897 37.1437 68.7176 39.0049 68.5042C40.4019 68.3273 41.6876 68.0933 42.9267 67.7906C48.0227 66.5471 52.7989 64.0939 56.7373 60.696C56.8055 60.64 56.8621 60.5929 56.9159 60.543L57.0683 60.4094C57.1537 60.3356 57.2391 60.2613 57.3233 60.1826L57.6338 59.901C57.6721 59.8655 57.7109 59.8306 57.7463 59.7929C58.3512 59.2279 58.8829 58.6963 59.4107 58.1286C59.4517 58.0864 59.4805 58.0576 59.5093 58.0243C59.521 58.0099 59.547 57.9828 59.5598 57.9689C59.6374 57.8896 59.7178 57.8065 59.7926 57.7244L59.8331 57.6801C59.9601 57.5381 60.0892 57.3934 60.2151 57.2465C60.2267 57.2327 60.2672 57.1911 60.2794 57.1778C60.3077 57.1456 60.3603 57.083 60.4113 57.0209L60.4851 56.9333C60.5039 56.9083 60.5244 56.8845 60.545 56.8618C60.5494 56.8546 60.5544 56.8485 60.5594 56.8412C60.5832 56.8096 60.6176 56.7636 60.6658 56.7137C60.7506 56.6056 60.836 56.4992 60.9275 56.3916C60.9813 56.3218 61.055 56.2281 61.126 56.1316C61.1271 56.13 61.1282 56.1277 61.1298 56.1261C61.1454 56.1044 61.1626 56.0817 61.1803 56.0612V56.0606C61.2524 55.9764 61.3156 55.8888 61.3799 55.7968C61.4326 55.7252 61.4819 55.6576 61.529 55.5916C61.5456 55.483 61.585 55.3754 61.6499 55.2773C61.9066 54.887 62.1544 54.4867 62.3894 54.087C62.4682 53.9528 62.5813 53.8508 62.7099 53.7848C63.6119 52.2514 64.3287 50.6336 64.8427 48.9654C64.9009 48.7969 64.9408 48.6522 64.9807 48.5081L65.0356 48.3146C65.0517 48.2614 65.0611 48.2375 65.0672 48.207C65.1188 48.0146 65.1531 47.8694 65.1869 47.7252C65.2867 47.3494 65.3638 46.9979 65.437 46.6403L65.4564 46.5372C65.4891 46.3614 65.5229 46.1829 65.5484 46.0049C65.5939 45.7693 65.626 45.5781 65.6493 45.3768C65.6521 45.3546 65.6554 45.333 65.6599 45.3108C65.6704 45.2615 65.6743 45.2077 65.6804 45.1489C65.7064 44.9627 65.7225 44.8124 65.7386 44.6616C65.7408 44.6406 65.7436 44.6195 65.7474 44.5984C65.7552 44.5585 65.7585 44.5153 65.7596 44.4715C65.7608 44.4454 65.7624 44.4194 65.7657 44.3939C65.789 44.2048 65.8073 44.0152 65.8162 43.8239C65.8173 43.799 65.8201 43.7735 65.8234 43.7485C65.824 43.728 65.8251 43.7075 65.8267 43.687C65.8423 43.5074 65.8517 43.3277 65.8583 43.1453C65.8628 43.0611 65.8683 42.9918 65.8672 42.9225C65.8666 42.9031 65.8672 42.8848 65.8683 42.8659C65.8777 42.6974 65.8777 42.5322 65.8788 42.362L65.8811 42.2766C65.8822 42.2494 65.8849 42.2228 65.8822 42.1923C65.8799 42.1652 65.8788 42.138 65.8794 42.1108C65.8827 41.9146 65.8799 41.7189 65.8711 41.5232C65.8622 40.951 65.8295 40.411 65.7729 39.8966C65.7236 39.3594 65.6737 38.9552 65.6094 38.571C65.6066 38.5521 65.6039 38.5327 65.6022 38.5128C65.6 38.5022 65.5872 38.4463 65.5856 38.4357C65.5562 38.2239 65.5168 38.0216 65.4758 37.8165C64.4823 32.6079 61.9415 28.1915 57.9215 24.6805H57.921C52.0831 19.5795 43.8947 17.822 36.4823 19.9304C42.8962 22.2273 48.683 27.7059 51.0509 33.9467C51.0625 33.9778 51.0725 34.0088 51.0797 34.0404C55.1479 44.6433 52.0266 55.8855 43.1152 62.7024C38.3096 66.378 32.6852 68.0806 27.0897 67.8073ZM34.955 70.3176C34.5109 70.3176 34.074 70.3082 33.6449 70.2899C29.6244 70.1474 25.6643 69.3031 21.8794 67.7801C21.6399 67.6814 21.4121 67.5839 21.1831 67.4863L20.9902 67.4037C19.7644 66.8676 18.5724 66.2627 17.4409 65.6046C17.4221 65.5936 17.4038 65.5825 17.386 65.5697C16.8643 65.2676 16.4241 64.9959 16.015 64.7292C15.1158 64.1505 14.2171 63.5062 13.2724 62.7633C12.9347 62.4978 12.8727 62.011 13.1327 61.6695C13.3921 61.3286 13.8778 61.2587 14.2232 61.5126C22.8513 67.8594 33.8168 67.8367 42.1605 61.4539C50.5253 55.0555 53.4392 44.4864 49.5839 34.5283C49.5817 34.5228 49.5795 34.5167 49.5773 34.5111C49.5662 34.4812 49.5567 34.4507 49.5495 34.4202C47.0392 27.9027 40.5422 22.2921 33.7181 20.7581C33.3827 20.6827 33.1349 20.3983 33.1066 20.0557C33.0789 19.7131 33.2762 19.3921 33.595 19.2635C42.1095 15.814 52.0632 17.4761 58.9555 23.4974H58.9549C63.1856 27.1914 65.9736 32.0379 67.0176 37.5132C67.0636 37.7411 67.1079 37.9739 67.1423 38.2178C67.1495 38.2467 67.1573 38.2877 67.1634 38.3337C67.2321 38.7506 67.2854 39.1853 67.3364 39.738C67.3973 40.2885 67.4334 40.8784 67.4417 41.4766C67.4511 41.6701 67.4539 41.8852 67.4511 42.1014C67.4561 42.1851 67.4544 42.2605 67.4511 42.337C67.4495 42.556 67.4483 42.7412 67.4384 42.928C67.4389 43.0289 67.4334 43.1287 67.4278 43.2219C67.4217 43.3965 67.4118 43.585 67.3962 43.7746C67.3968 43.8384 67.3907 43.8955 67.384 43.9437C67.3729 44.1483 67.3541 44.3501 67.3297 44.5519C67.3253 44.6561 67.3147 44.7581 67.2981 44.8557C67.2809 45.0176 67.2632 45.1789 67.2393 45.3408C67.2332 45.4112 67.2233 45.5015 67.2066 45.5891C67.1789 45.8214 67.1412 46.0449 67.0969 46.2683C67.0758 46.4263 67.0381 46.6281 67.0004 46.8288L66.9793 46.9413C66.8978 47.3422 66.813 47.7241 66.711 48.1072C66.6783 48.2486 66.6389 48.4133 66.5935 48.5779C66.5879 48.6139 66.5668 48.6844 66.5402 48.7681L66.4948 48.9305C66.4454 49.1068 66.395 49.2842 66.3351 49.4561C65.6321 51.7402 64.5572 53.9595 63.1495 56.0241L62.9937 56.2442C62.8823 56.4011 62.7709 56.5585 62.6544 56.7154C62.5807 56.8224 62.4931 56.941 62.3955 57.0575L62.3933 57.0608C62.3124 57.1711 62.2281 57.2787 62.1438 57.3857C62.0452 57.5026 61.9709 57.5963 61.8977 57.6895C61.8727 57.7244 61.8456 57.7571 61.8162 57.7876C61.7813 57.8369 61.7486 57.8735 61.7275 57.8963C61.7186 57.9079 61.7103 57.9184 61.7009 57.9295L61.6177 58.0288C61.5545 58.1042 61.4902 58.1812 61.4259 58.2533C61.4176 58.2622 61.381 58.2999 61.3727 58.3087C61.2751 58.4246 61.1387 58.5771 61.0051 58.7262L60.968 58.7689C60.8709 58.8753 60.7767 58.9718 60.6858 59.0655C60.6558 59.1015 60.6026 59.1575 60.5488 59.2124C60.0072 59.7945 59.4495 60.3528 58.8546 60.9056C58.8324 60.9322 58.767 60.9931 58.701 61.0547C58.6955 61.0597 58.6517 61.1001 58.6461 61.1046L58.3789 61.3463C58.298 61.4228 58.1982 61.5093 58.0995 61.5952L57.9681 61.71C57.9055 61.7676 57.829 61.832 57.7524 61.8957C53.6377 65.4455 48.6359 68.0146 43.2992 69.3175C42.0019 69.6346 40.6592 69.8791 39.1933 70.0648C37.7247 70.2328 36.306 70.3176 34.955 70.3176Z" fill="#FEFEFE"/>
<path id="Fill 23" fill-rule="evenodd" clip-rule="evenodd" d="M14.2458 61.5289C22.87 67.8596 33.8239 67.8319 42.1604 61.4541C49.8804 55.5492 52.9579 46.0917 50.3555 36.8404C50.243 37.1553 50.1232 37.4696 49.9968 37.7829L49.245 37.5445L49.9741 37.8372L49.9392 37.9209C49.6736 38.5701 49.3981 39.1711 49.1064 39.7349C49.0954 39.7587 49.0837 39.7831 49.0721 39.8075C48.9274 40.093 48.796 40.3342 48.6624 40.5659C48.6114 40.668 48.5543 40.7644 48.4961 40.8603L48.4262 40.9773C48.4251 40.9801 48.3885 41.0411 48.3868 41.0433C48.3746 41.0649 48.3619 41.086 48.3491 41.1065C48.3114 41.1758 48.271 41.2467 48.2266 41.3149C48.0248 41.6459 47.8147 41.9852 47.5841 42.309C47.5525 42.3622 47.4904 42.4542 47.4277 42.5457C47.4061 42.5784 47.3828 42.6117 47.3584 42.6449C44.6718 46.5158 40.6773 49.6936 36.3724 51.4011C36.322 51.4211 36.2699 51.4361 36.2172 51.4449C25.6387 55.4799 14.426 52.3525 7.62125 43.4599C3.9417 38.6516 2.23858 33.0278 2.51467 27.4217C2.07448 29.2379 1.78564 31.1001 1.64925 32.9967C1.61876 33.4829 1.59714 33.9791 1.58106 34.4748L1.57275 34.9654C1.56055 36.5299 1.65369 38.0983 1.84773 39.6285L1.90594 40.0376C1.93255 40.2594 1.96138 40.4512 1.99686 40.6436C2.36609 42.9837 3.00809 45.3266 3.90622 47.6262C3.93116 47.675 3.95168 47.7255 3.96775 47.7776C4.41349 48.8925 4.94128 50.0246 5.53671 51.1433C7.27475 54.3639 9.49179 57.2434 12.1241 59.6994C12.2788 59.8491 12.4296 59.9844 12.5804 60.1202C12.587 60.1257 12.6153 60.1512 12.6219 60.1584L12.6707 60.205C12.9457 60.4495 13.249 60.7145 13.5594 60.9734C13.5899 60.9928 13.591 60.9928 13.6182 61.0167C13.718 61.1015 13.82 61.183 13.922 61.2645C14.0301 61.351 14.1388 61.4386 14.2458 61.5289ZM28.2527 67.8363C23.0807 67.8363 17.8771 66.1515 13.2922 62.7785C13.2767 62.7669 13.2617 62.7552 13.2473 62.7431C13.1464 62.6566 13.0427 62.574 12.9396 62.4908C12.8365 62.4088 12.7339 62.3261 12.6325 62.2413C12.587 62.2086 12.5449 62.1754 12.5133 62.1443C12.2294 61.9109 11.9129 61.6343 11.6013 61.3565L11.5298 61.2878C11.3629 61.1392 11.1971 60.9895 11.0402 60.837C8.29485 58.2763 5.97302 55.2609 4.15181 51.8857C3.51924 50.6982 2.96152 49.4984 2.49028 48.3165C2.48751 48.3093 2.48473 48.302 2.48196 48.2948C2.47531 48.2793 2.4681 48.2643 2.46256 48.2488C1.51232 45.8278 0.834285 43.3573 0.447314 40.9063C0.410169 40.7012 0.375796 40.4767 0.34863 40.2461L0.291527 39.8441C0.0858448 38.2269 -0.0111751 36.5881 0.00102166 34.9549L0.00989206 34.4465C0.0270785 33.9131 0.0492545 33.4003 0.0814097 32.8908C0.344195 29.2274 1.1514 25.6908 2.48141 22.3733C2.53019 22.238 2.5945 22.0795 2.65937 21.9276C2.66381 21.9176 2.68376 21.8716 2.6882 21.861C2.82846 21.5234 2.99201 21.1486 3.16498 20.7772C3.20656 20.6724 3.27032 20.5382 3.33906 20.4008C4.09305 18.7908 5.0322 17.1542 6.12271 15.5536L6.45978 15.0785C6.78355 14.6189 7.14114 14.1432 7.54696 13.6304C7.81252 13.295 8.29817 13.2335 8.63968 13.494C8.98008 13.7535 9.04994 14.2386 8.79658 14.584C2.462 23.2099 2.49083 34.1698 8.8692 42.5047C15.2653 50.8628 25.8255 53.7784 35.7737 49.932C35.8191 49.9148 35.8657 49.9015 35.9128 49.8926C39.8912 48.2849 43.5774 45.3366 46.0406 41.7867L46.0872 41.7208C46.0911 41.7152 46.126 41.6653 46.1299 41.6598C46.1798 41.5866 46.2297 41.5134 46.2768 41.4375C46.5058 41.1142 46.6915 40.8143 46.8961 40.4783C46.9338 40.4201 46.957 40.3775 46.9787 40.3375C46.9892 40.3176 47.0008 40.2982 47.0136 40.2793L47.1516 40.0465C47.1893 39.9838 47.2281 39.9228 47.2597 39.8563C47.2692 39.8369 47.2791 39.8181 47.2897 39.7992C47.4144 39.5858 47.5358 39.3623 47.6484 39.1428C47.6589 39.1151 47.6839 39.0635 47.6977 39.0375C47.9727 38.508 48.2333 37.9409 48.4944 37.3033L49.245 37.5445L48.516 37.2517L48.5509 37.168C48.8758 36.3625 49.1608 35.5176 49.387 34.6832C49.4485 34.4703 49.5034 34.2657 49.5522 34.0617C49.6326 33.7269 49.9209 33.4835 50.2635 33.4608C50.6128 33.4386 50.9254 33.6404 51.0491 33.9608C55.1633 44.587 52.0492 55.869 43.115 62.7026C38.6421 66.1238 33.4635 67.8358 28.2527 67.8363Z" fill="#FEFEFE"/>
<path id="Fill 24" fill-rule="evenodd" clip-rule="evenodd" d="M171.922 78.3406L169.75 73.1636L167.54 78.3406H171.922ZM172.484 79.6977H166.977L165.426 83.3429H163.836L169.789 69.79L175.586 83.3429H173.996L172.484 79.6977Z" fill="#FEFEFE"/>
<path id="Fill 25" fill-rule="evenodd" clip-rule="evenodd" d="M177.059 75.2967H178.456V76.15C178.901 75.4908 179.6 75.1027 180.452 75.1027C181.907 75.1027 182.489 76.1305 182.643 76.4017C183.42 75.1803 184.524 75.1027 185.067 75.1027C187.452 75.1027 187.685 77.0996 187.685 78.2434V83.3433H186.289V78.4568C186.289 77.5459 186.172 76.344 184.854 76.344C183.244 76.344 183.07 77.8952 183.07 78.8643V83.3433H181.674V78.5732C181.674 78.0111 181.693 76.344 180.22 76.344C178.63 76.344 178.456 77.9917 178.456 78.9608V83.3433H177.059V75.2967Z" fill="#FEFEFE"/>
<path id="Fill 26" fill-rule="evenodd" clip-rule="evenodd" d="M193.657 77.1581C193.463 76.6924 193.056 76.3437 192.532 76.3437C192.028 76.3437 191.563 76.6348 191.563 77.2551C191.563 77.8367 191.951 78.0113 192.862 78.3989C194.025 78.8834 194.568 79.2521 194.878 79.6402C195.227 80.0665 195.305 80.4934 195.305 80.9386C195.305 82.6256 194.084 83.5759 192.532 83.5759C192.203 83.5759 190.4 83.5371 189.721 81.5207L190.923 81.0162C191.078 81.4431 191.543 82.3351 192.552 82.3351C193.463 82.3351 193.87 81.656 193.87 81.055C193.87 80.2988 193.327 80.0471 192.571 79.7172C191.602 79.2909 190.981 78.9804 190.613 78.5341C190.303 78.1466 190.244 77.7591 190.244 77.3522C190.244 75.9368 191.234 75.103 192.59 75.103C193.017 75.103 194.161 75.1806 194.801 76.5572L193.657 77.1581Z" fill="#FEFEFE"/>
<path id="Fill 27" fill-rule="evenodd" clip-rule="evenodd" d="M198.601 76.5761V83.3431H197.205V76.5761H196.352V75.2966H197.205V72.3882H198.601V75.2966H199.997V76.5761H198.601Z" fill="#FEFEFE"/>
<path id="Fill 28" fill-rule="evenodd" clip-rule="evenodd" d="M207.074 78.4375C206.842 77.1779 205.891 76.344 204.708 76.344C203.526 76.344 202.557 77.2355 202.343 78.4375H207.074ZM208.45 81.2882C208.218 81.7339 207.869 82.2185 207.462 82.5866C206.725 83.2463 205.814 83.5762 204.786 83.5762C202.847 83.5762 200.811 82.3543 200.811 79.3683C200.811 76.9644 202.285 75.1027 204.708 75.1027C206.279 75.1027 207.268 75.8783 207.753 76.5763C208.257 77.2937 208.547 78.5345 208.509 79.6011H202.246C202.266 81.2682 203.41 82.3349 204.805 82.3349C205.465 82.3349 205.988 82.1414 206.454 81.7528C206.822 81.4429 207.113 81.0359 207.287 80.6478L208.45 81.2882Z" fill="#FEFEFE"/>
<path id="Fill 29" fill-rule="evenodd" clip-rule="evenodd" d="M210.642 75.2967H212.038V76.1688C212.174 75.9554 212.775 75.1027 213.861 75.1027C214.287 75.1027 214.752 75.2579 215.101 75.432L214.442 76.6927C214.132 76.4793 213.841 76.4211 213.628 76.4211C213.066 76.4211 212.716 76.6539 212.503 76.9256C212.271 77.2355 212.038 77.7788 212.038 79.0966V83.3433H210.642V75.2967Z" fill="#FEFEFE"/>
<path id="Fill 30" fill-rule="evenodd" clip-rule="evenodd" d="M216.846 79.3102C216.846 81.0355 217.816 82.335 219.484 82.335C221.19 82.335 222.159 80.9191 222.159 79.3296C222.159 77.255 220.724 76.3436 219.484 76.3436C218.107 76.3436 216.846 77.352 216.846 79.3102ZM222.082 69.2085H223.478V83.3429H222.082V82.2186C221.616 82.8195 220.744 83.5757 219.328 83.5757C217.293 83.5757 215.412 82.141 215.412 79.3102C215.412 76.5376 217.273 75.1028 219.328 75.1028C220.879 75.1028 221.713 75.9555 222.082 76.4406V69.2085Z" fill="#FEFEFE"/>
<path id="Fill 31" fill-rule="evenodd" clip-rule="evenodd" d="M227.045 79.3102C227.045 81.0355 228.014 82.335 229.682 82.335C231.388 82.335 232.358 80.9191 232.358 79.3296C232.358 77.255 230.923 76.3436 229.682 76.3436C228.305 76.3436 227.045 77.352 227.045 79.3102ZM232.28 75.2969H233.676V83.3429H232.28V82.2186C231.815 82.8195 230.942 83.5757 229.527 83.5757C227.491 83.5757 225.61 82.141 225.61 79.3102C225.61 76.5376 227.472 75.1028 229.527 75.1028C231.077 75.1028 231.911 75.9555 232.28 76.4406V75.2969Z" fill="#FEFEFE"/>
<path id="Fill 32" fill-rule="evenodd" clip-rule="evenodd" d="M236.313 75.2967H237.709V76.15C238.154 75.4908 238.853 75.1027 239.706 75.1027C241.16 75.1027 241.742 76.1305 241.897 76.4017C242.673 75.1803 243.778 75.1027 244.32 75.1027C246.705 75.1027 246.938 77.0996 246.938 78.2434V83.3433H245.542V78.4568C245.542 77.5459 245.425 76.344 244.107 76.344C242.498 76.344 242.323 77.8952 242.323 78.8643V83.3433H240.927V78.5732C240.927 78.0111 240.946 76.344 239.473 76.344C237.883 76.344 237.709 77.9917 237.709 78.9608V83.3433H236.313V75.2967Z" fill="#FEFEFE"/>
</g>
</g>
</svg>
