<?xml version="1.0" encoding="UTF-8"?><!DOCTYPE svg PUBLIC "-//W3C//DTD SVG 1.1//EN" "http://www.w3.org/Graphics/SVG/1.1/DTD/svg11.dtd"><svg xmlns="http://www.w3.org/2000/svg" xmlns:xlink="http://www.w3.org/1999/xlink"><defs><filter id="Adobe_OpacityMaskFilter" filterUnits="userSpaceOnUse" x="61.4" y="487.3" width="61.2" height="60.9"><feColorMatrix values="1 0 0 0 0 0 1 0 0 0 0 0 1 0 0 0 0 0 1 0"/></filter></defs><symbol id="decoration" viewBox="0 0 122.6 548.2"><style>.st0{fill:#afe2e3}.st3{fill:#fff}.st4{fill:#0b007b}.st5{fill:#22dc9e}</style><g id="Group_34"><g id="Group_38"><path id="Fill_1" class="st0" d="M62.2 487v61.2H1c0-33.9 27.4-61.3 61.2-61.2z"/><g id="Group_5"><mask maskUnits="userSpaceOnUse" x="61.4" y="487.3" width="61.2" height="60.9" id="mask0_1_"><path id="Clip_4_1_" d="M61.4 487.3h61.2v60.9H61.4v-60.9z" fill="#fff" filter="url(#Adobe_OpacityMaskFilter)"/></mask><g mask="url(#mask0_1_)"><path id="Fill_3" class="st3" d="M122.6 548.2H61.4v-60.9c33.8 0 61.2 27.2 61.2 60.9z"/></g></g><path id="Fill_6_Copy" class="st0" d="M120.8 61.2H60.5V0c33.3 0 60.3 27.4 60.3 61.2z"/><path id="Fill_8_Copy" class="st4" d="M60.3 62.2H0V1c33.3 0 60.3 27.4 60.3 61.2z"/><path id="Fill_22_Copy" class="st3" d="M.2 61.2h120.6c0 33.3-27 60.3-60.3 60.3S.2 94.5.2 61.2z"/><path id="Oval" class="st0" d="M60.8 243c33.6 0 60.8-27.2 60.8-60.8s-27.2-60.8-60.8-60.8C27.2 121.5 0 148.7 0 182.2S27.2 243 60.8 243z"/><path id="Fill_10" class="st0" d="M1 243h60.3v61.2C28 304.2 1 276.8 1 243z"/><path id="Fill_12" class="st5" d="M122.5 304.2H61.3V243c33.8-.1 61.3 27.3 61.2 61.2z"/><g id="Group_39"><path id="Fill_17" class="st4" d="M122.4 426.4L.9 427c.1-33.6 27.4-60.9 61-61 33.5-.2 60.6 26.9 60.5 60.4z"/><path id="Fill_19" class="st5" d="M122.5 425.8c-.1 33.5-27.5 60.9-61 61C27.9 487 .9 459.9 1 426.4l121.5-.6z"/></g><path id="Fill_22" class="st3" d="M1.9 304.2h120.6c0 33.3-27 60.3-60.3 60.3s-60.3-27-60.3-60.3z"/></g></g></symbol><symbol id="logo"><path fill-rule="evenodd" clip-rule="evenodd" d="M80.496 25.276c-1.892-1.93-2.838-4.276-2.838-7.114s.946-5.183 2.838-7.113c1.93-1.93 4.314-2.876 7.152-2.876 3.67 0 6.925 1.892 8.476 4.881l-4.2 2.46c-.757-1.552-2.384-2.535-4.314-2.535-2.913 0-5.07 2.156-5.07 5.183 0 1.476.492 2.725 1.438 3.709.946.946 2.157 1.438 3.633 1.438 1.967 0 3.594-.946 4.351-2.498l4.238 2.422c-1.665 2.99-4.881 4.92-8.552 4.92-2.838 0-5.222-.947-7.152-2.877z" fill="#FEFEFE"/><mask id="a" maskUnits="userSpaceOnUse" x="0" y="0" width="248" height="84"><path fill-rule="evenodd" clip-rule="evenodd" d="M0 83.576h247.3V0H0v83.576z" fill="#fff"/></mask><g mask="url(#a)" fill-rule="evenodd" clip-rule="evenodd" fill="#FEFEFE"><path d="M98.772 27.622h4.881V8.702h-4.881v18.92zm-.568-24.179c0-1.627 1.362-3.027 2.99-3.027 1.664 0 3.027 1.4 3.027 3.027 0 1.627-1.363 2.99-3.027 2.99-1.628 0-2.99-1.363-2.99-2.99zM112.999 11.957c.908-2.422 3.179-3.632 5.752-3.632v5.448c-1.476-.189-2.838.113-4.011.908s-1.741 2.082-1.741 3.898v9.043h-4.881V8.702h4.881v3.255zM122.723 25.276c-1.892-1.93-2.838-4.276-2.838-7.114s.946-5.183 2.838-7.113c1.929-1.93 4.313-2.876 7.151-2.876 3.672 0 6.925 1.892 8.477 4.881l-4.2 2.46c-.757-1.552-2.385-2.535-4.314-2.535-2.914 0-5.07 2.156-5.07 5.183 0 1.476.491 2.725 1.437 3.709.946.946 2.157 1.438 3.633 1.438 1.968 0 3.595-.946 4.352-2.498l4.238 2.422c-1.665 2.99-4.881 4.92-8.553 4.92-2.838 0-5.222-.947-7.151-2.877zM153.637 8.703h4.882v18.92h-4.882v-2.12c-1.172 1.779-3.065 2.65-5.638 2.65-2.081 0-3.783-.682-5.146-2.082-1.325-1.4-2.005-3.292-2.005-5.751V8.703h4.881v11.011c0 2.536 1.475 3.898 3.746 3.898 2.535 0 4.162-1.552 4.162-4.693V8.703zM162.983 27.622h4.881V0h-4.881v27.622zM181.448 23.498c1.513 0 2.762-.492 3.746-1.476 1.021-1.022 1.513-2.308 1.513-3.86 0-1.55-.492-2.838-1.513-3.821-.984-1.022-2.233-1.514-3.746-1.514s-2.762.492-3.746 1.514c-.984.983-1.476 2.27-1.476 3.821 0 1.552.492 2.838 1.476 3.86.984.984 2.233 1.476 3.746 1.476zm5.259-14.795h4.882v18.92h-4.882V25.39c-1.476 1.854-3.519 2.762-6.167 2.762-2.536 0-4.693-.946-6.509-2.876-1.778-1.93-2.687-4.313-2.687-7.114 0-2.8.909-5.145 2.687-7.075 1.816-1.93 3.973-2.914 6.509-2.914 2.648 0 4.691.908 6.167 2.762V8.703zM200.896 11.957c.909-2.422 3.178-3.632 5.752-3.632v5.448c-1.476-.189-2.838.113-4.011.908s-1.741 2.082-1.741 3.898v9.043h-4.881V8.702h4.881v3.255zM86.589 51.893c2.762.568 6.356 1.893 6.319 5.941 0 1.93-.719 3.444-2.195 4.503-1.438 1.022-3.254 1.551-5.41 1.551-3.899 0-6.547-1.513-7.947-4.502l4.238-2.384c.568 1.627 1.779 2.459 3.708 2.459 1.74 0 2.611-.53 2.611-1.627 0-1.021-1.513-1.589-3.443-2.08-2.8-.72-6.32-1.893-6.32-5.828 0-1.855.681-3.33 2.044-4.39 1.4-1.096 3.103-1.627 5.146-1.627 3.065 0 5.714 1.438 7.19 4.012l-4.163 2.27c-.605-1.287-1.627-1.93-3.027-1.93-1.248 0-2.195.605-2.195 1.551 0 1.022 1.514 1.59 3.444 2.081zM111.676 45.99c1.362 1.4 2.044 3.292 2.044 5.752V63.36h-4.882V52.348c0-2.535-1.476-3.898-3.746-3.898-2.535 0-4.162 1.551-4.162 4.692V63.36h-4.881V36.87h4.881v9.687c1.173-1.778 3.065-2.649 5.638-2.649 2.081 0 3.784.682 5.108 2.081zM117.881 63.358h4.881V44.44h-4.881v18.92zm-.568-24.179c0-1.626 1.362-3.027 2.99-3.027 1.664 0 3.027 1.4 3.027 3.027 0 1.628-1.363 2.99-3.027 2.99-1.628 0-2.99-1.362-2.99-2.99zM137.406 41.034c-2.687-.19-4.011.87-4.011 3.216v.19h4.011v4.69h-4.011V63.36h-4.882V49.131h-2.725V44.44h2.725v-.19c0-5.335 2.99-8.249 8.893-7.909v4.693zM151.064 49.131h-4.275v7.87c0 2.044 1.475 2.082 4.275 1.93v4.428c-6.697.756-9.157-1.174-9.157-6.358v-7.87h-3.292V44.44h3.292v-3.821l4.882-1.477v5.298h4.275v4.692zM163.681 63.359v-1.835l9.822-10.09c2.867-2.981 4.319-5.504 4.319-7.567 0-3.555-2.523-5.733-5.886-5.733-2.981 0-5.122 1.337-6.382 4.051l-1.721-1.032c1.568-3.21 4.549-4.969 8.103-4.969 2.179 0 4.013.688 5.58 2.064 1.567 1.376 2.369 3.248 2.369 5.619 0 3.057-1.834 5.809-5.006 9.02l-8.294 8.523h13.912v1.949h-16.816zM193.834 61.83c2.485 0 4.434-1.032 5.848-3.096 1.414-2.102 2.102-5.007 2.102-8.752 0-3.746-.688-6.65-2.102-8.714-1.414-2.103-3.363-3.134-5.848-3.134-2.484 0-4.433 1.031-5.847 3.134-1.415 2.064-2.102 4.968-2.102 8.714 0 3.745.687 6.65 2.102 8.752 1.414 2.064 3.363 3.096 5.847 3.096zm0 1.95c-3.172 0-5.618-1.262-7.376-3.747-1.758-2.484-2.637-5.847-2.637-10.051s.879-7.568 2.637-10.052 4.204-3.746 7.376-3.746c3.173 0 5.619 1.262 7.377 3.746s2.637 5.848 2.637 10.052-.879 7.567-2.637 10.051c-1.758 2.485-4.204 3.747-7.377 3.747zM207.132 63.359v-1.835l9.823-10.09c2.867-2.981 4.319-5.504 4.319-7.567 0-3.555-2.523-5.733-5.886-5.733-2.982 0-5.122 1.337-6.383 4.051l-1.72-1.032c1.567-3.21 4.548-4.969 8.103-4.969 2.178 0 4.013.688 5.579 2.064 1.568 1.376 2.37 3.248 2.37 5.619 0 3.057-1.834 5.809-5.006 9.02l-8.294 8.523h13.912v1.949h-16.817zM237.286 61.83c2.484 0 4.434-1.032 5.848-3.096 1.414-2.102 2.102-5.007 2.102-8.752 0-3.746-.688-6.65-2.102-8.714-1.414-2.103-3.364-3.134-5.848-3.134s-4.434 1.031-5.848 3.134c-1.414 2.064-2.102 4.968-2.102 8.714 0 3.745.688 6.65 2.102 8.752 1.414 2.064 3.364 3.096 5.848 3.096zm0 1.95c-3.172 0-5.618-1.262-7.377-3.747-1.758-2.484-2.637-5.847-2.637-10.051s.879-7.568 2.637-10.052c1.759-2.484 4.205-3.746 7.377-3.746 3.172 0 5.618 1.262 7.377 3.746 1.758 2.484 2.637 5.848 2.637 10.052s-.879 7.567-2.637 10.051c-1.759 2.485-4.205 3.747-7.377 3.747zM8.796 14.584c-6.334 8.622-6.306 19.581.072 27.92 5.911 7.727 15.384 10.804 24.643 8.184l.193-.743-.237.744-.017-.004-.001.003-.037-.013a1.334 1.334 0 0 1-.16-.056l-.088-.032a16.081 16.081 0 0 1-.715-.282 12.888 12.888 0 0 1-.672-.284l-.019-.008-.274-.123a24.087 24.087 0 0 1-3.676-2.095 14.31 14.31 0 0 1-.854-.616 1.426 1.426 0 0 1-.083-.065 2.783 2.783 0 0 1-.16-.123 22.2 22.2 0 0 1-2.266-1.982l-.039-.037a3.312 3.312 0 0 1-.185-.19l-.018-.014a2.51 2.51 0 0 1-.15-.152 1.823 1.823 0 0 1-.093-.098 5.338 5.338 0 0 1-.282-.296c-.073-.078-.144-.159-.215-.239l-.044-.048c-.069-.075-.129-.14-.183-.205a1.401 1.401 0 0 1-.125-.147 1.536 1.536 0 0 1-.112-.126 4.332 4.332 0 0 1-.264-.323l-.074-.086a19.897 19.897 0 0 1-.426-.529l-.04-.053-.087-.116a6.641 6.641 0 0 1-.151-.205l-.007-.01-.153-.207a3.631 3.631 0 0 1-.128-.177 4.099 4.099 0 0 1-.1-.141l-.17-.248a2.33 2.33 0 0 1-.1-.153 3.673 3.673 0 0 1-.197-.296 2.406 2.406 0 0 1-.115-.18c-.028-.047-.056-.093-.087-.138a.7.7 0 0 1-.046-.073l-.121-.197a.811.811 0 0 1-.036-.054l-.117-.199c-.05-.086-.1-.171-.151-.255l-.124-.217a6.764 6.764 0 0 1-.241-.442l-.047-.081a2.519 2.519 0 0 1-.033-.062l-.17-.333a1 1 0 0 1-.035-.062 26.171 26.171 0 0 1-.876-1.945c-2.77-6.786-2.3-14.437 1.292-21 3.59-6.558 9.78-11.068 16.984-12.373.22-.045.454-.089.697-.123a.98.98 0 0 1 .128-.02c.244-.042.492-.074.743-.103.2-.028.425-.052.654-.072.318-.036.663-.061 1.006-.076a8.67 8.67 0 0 1 .74-.03c.2-.009.427-.012.65-.007.069-.002.15-.003.236 0a7.75 7.75 0 0 1 .579.013 3.26 3.26 0 0 1 .268.01c.062.001.125.004.19.007a33.637 33.637 0 0 0-4.875-.837 33.784 33.784 0 0 0-14.197 1.698c-.677.233-1.438.528-2.275.887l-.214.095c-.105.044-.162.072-.22.099a.666.666 0 0 1-.065.027.732.732 0 0 1-.078.038c-.13.056-.262.117-.393.18l-.01.005a33.981 33.981 0 0 0-3.351 1.819l-.866.555-.03.02c-.205.137-.411.279-.61.421a5.31 5.31 0 0 0-.292.208.807.807 0 0 1-.064.044 1.606 1.606 0 0 1-.094.065c-.057.042-.152.109-.243.178-.085.06-.144.106-.201.15l-.085.063-.015.012a32.954 32.954 0 0 0-2.721 2.292c-.546.514-1.018.983-1.443 1.437-.334.343-.653.694-.99 1.085-.28.318-.541.634-.793.955-.06.07-.092.112-.126.156l-.01.013-.013.018zM26.981 53.18c-7.475 0-14.53-3.407-19.36-9.723C.806 34.552.77 22.853 7.53 13.653l.012-.016.02-.026c.063-.083.114-.149.17-.214.267-.34.543-.672.821-.987.35-.408.693-.783 1.039-1.139.437-.467.932-.96 1.501-1.495.85-.803 1.77-1.579 2.812-2.372l.009-.006a1.09 1.09 0 0 1 .064-.049l.504.605-.45-.644c.076-.06.155-.12.234-.176.081-.062.19-.14.3-.216l.093-.065c.108-.083.22-.163.335-.239a19.997 19.997 0 0 1 .636-.439l.925-.594A35.514 35.514 0 0 1 21 3.25l.086-.038c.891-.382 1.689-.691 2.456-.953l.34.714-.255-.744A35.361 35.361 0 0 1 38.33.5l.059.004c2.176.217 4.279.62 6.248 1.196.361.102.73.213 1.096.334.169.05.35.111.532.179.182.054.396.133.614.214l.2.074c.046.013.088.03.131.047.18.063.357.13.529.202a24.787 24.787 0 0 1 .887.362 35.083 35.083 0 0 1 4.641 2.393l.128.079.026.016.014.008c.225.14.454.284.676.435.138.088.29.19.443.294.018.009.063.04.115.08.173.113.34.232.508.351.046.028.114.077.178.128a28.85 28.85 0 0 1 .893.662c.16.122.353.272.543.423a.785.785 0 0 1-.955 1.248l-.047-.033a21.087 21.087 0 0 0-1.643-1.151 22.744 22.744 0 0 0-5.525-2.566.89.89 0 0 1-.062-.022l-.23-.067a16.333 16.333 0 0 0-.347-.1c-.21-.062-.403-.109-.6-.155-.375-.1-.727-.177-1.085-.25l-.096-.018c-.178-.033-.359-.068-.54-.093a7.174 7.174 0 0 0-.678-.107 1.897 1.897 0 0 0-.176-.025 5.745 5.745 0 0 0-.471-.057c-.1-.014-.153-.021-.205-.023a.787.787 0 0 1-.08-.006 7.492 7.492 0 0 0-.571-.05.689.689 0 0 1-.074-.008.758.758 0 0 1-.062-.003c-.18-.015-.36-.025-.541-.031a3.852 3.852 0 0 0-.226-.01 8.846 8.846 0 0 0-.558-.011c-.096-.002-.155 0-.226 0a10.143 10.143 0 0 0-.614.007c-.25.001-.467.013-.686.028-.325.015-.634.037-.937.071-.221.02-.42.04-.611.067-.254.029-.487.06-.716.099a.647.647 0 0 1-.065.008l-.038.008c-.244.035-.447.074-.653.115-6.75 1.223-12.54 5.445-15.9 11.585-3.373 6.16-3.809 13.338-1.197 19.696l.02.055a24.6 24.6 0 0 0 .758 1.679l.03.05.248.479.043.08c.057.117.124.231.19.346l.12.21c.04.065.096.16.152.256l.094.16a.2.2 0 0 1 .009.014l.09.14.043.073.027.045c.046.068.089.137.13.207.029.046.056.093.088.138.072.116.12.188.172.257a.956.956 0 0 1 .037.056c.025.04.036.061.05.08l.184.266c.024.034.047.07.072.101.056.081.083.122.113.16l.145.195a.7.7 0 0 1 .043.057c.04.058.082.115.125.17l.108.146c.097.123.186.238.276.348.04.05.073.089.108.129.043.05.086.1.127.152.077.102.14.178.205.25a.914.914 0 0 1 .046.055c.048.049.085.09.12.134.02.02.055.064.073.086.043.052.092.104.138.154l.041.046.043.047c.064.073.126.145.192.214a.65.65 0 0 1 .05.059c.08.08.13.135.185.188a1.308 1.308 0 0 0 .107.11.809.809 0 0 1 .062.07l.042.038c.035.033.069.066.098.096.051.058.085.089.116.12l.058.054a20.843 20.843 0 0 0 2.136 1.867c.058.047.09.07.121.092a1.064 1.064 0 0 1 .08.063l.045.033c.248.193.502.375.759.547a22.541 22.541 0 0 0 3.428 1.957l.26.116c.013.007.027.012.04.018l.029.013c.194.088.388.169.582.245l.268.109c.145.06.279.109.41.159l.13.048h.001c.025.007.05.015.074.024l.35.124c.243.087.487.176.737.242.047.011.105.027.16.047a1.105 1.105 0 0 1 .109.035l.006.003c.042.012.084.027.128.037l.062.018c.293.084.535.148.78.21a.786.786 0 0 1 .09 1.495c-3.105 1.2-6.269 1.783-9.359 1.783z"/><path d="M67.438 42.928a27.799 27.799 0 0 1-.018.474c.181-.732.339-1.473.474-2.223.589-3.377.67-6.754.242-10.036a.779.779 0 0 1-.006-.09 32.12 32.12 0 0 0-.218-1.433 4.29 4.29 0 0 1-.045-.243l-.084-.46a2.798 2.798 0 0 1-.038-.19 39.707 39.707 0 0 0-.348-1.527c-.05-.203-.101-.397-.157-.59a23.62 23.62 0 0 0-.212-.757c-.024-.087-.043-.157-.067-.225a30.097 30.097 0 0 0-.46-1.418 1.023 1.023 0 0 0-.02-.048l-.057-.157c-.052-.14-.102-.278-.157-.417A30.45 30.45 0 0 0 65 20.64a31.984 31.984 0 0 0-2.366-4.076.741.741 0 0 1-.049-.082l-.255-.363-.171-.238a33.772 33.772 0 0 0-4.374-4.967 1.25 1.25 0 0 1-.053-.055.481.481 0 0 0-.049-.047 18.824 18.824 0 0 0-1.007-.905l-.133-.113a.84.84 0 0 1-.037-.028c-.243-.198-.47-.382-.69-.555l-.025-.016a1.17 1.17 0 0 1-.052-.039c-.204-.162-.419-.314-.632-.465l-.33-.235a23.023 23.023 0 0 0-6.153-2.978.643.643 0 0 1-.063-.022l-.23-.067a16.495 16.495 0 0 0-.947-.255 18.37 18.37 0 0 0-1.085-.25l-.096-.018c-.178-.033-.359-.068-.54-.093a7.166 7.166 0 0 0-.678-.107 21.756 21.756 0 0 0-.664-.084 1.565 1.565 0 0 0-.188-.02.781.781 0 0 1-.08-.007 7.465 7.465 0 0 0-.571-.05.689.689 0 0 1-.074-.008.762.762 0 0 1-.062-.003c-.18-.015-.36-.025-.541-.031-.086-.005-.156-.01-.226-.01-.22-.006-.39-.01-.572-.01-.081-.003-.141-.002-.212-.001-.222-.003-.418 0-.614.007-.25.001-.467.013-.686.028-.325.015-.634.037-.937.071-.221.02-.42.04-.611.067-.254.029-.487.06-.716.099a.647.647 0 0 1-.065.008l-.038.008c-.244.035-.447.074-.653.115-6.75 1.224-12.54 5.446-15.9 11.585-2.982 5.445-3.668 11.688-1.982 17.458a24.389 24.389 0 0 1 3.203-6.122c.017-.028.058-.09.109-.151.187-.267.416-.562.654-.854.045-.065.117-.155.198-.246 6.116-7.454 15.748-10.621 25.118-8.238 9.374 2.382 16.326 9.753 18.143 19.236.047.228.09.461.125.705.01.036.02.091.025.153.071.426.13.893.17 1.373.06.544.096 1.135.105 1.733.01.193.012.408.01.625.004.083.002.159 0 .235-.003.22-.004.404-.014.591zM61.74 57.414a.784.784 0 0 1-.658-1.215.95.95 0 0 1 .098-.138c.072-.085.136-.172.2-.264.326-.435.622-.867.897-1.308a22.598 22.598 0 0 0 2.566-5.524c.058-.168.098-.313.138-.457l.055-.193c.016-.053.025-.078.031-.108.052-.192.086-.337.12-.482.1-.376.177-.727.25-1.085l.02-.103c.032-.175.066-.354.091-.532a8.28 8.28 0 0 0 .101-.628l.01-.066c.011-.05.015-.104.021-.162.03-.19.045-.329.057-.47a.678.678 0 0 1 .01-.08.837.837 0 0 0 .013-.128c0-.026.002-.051.006-.077.023-.19.041-.379.05-.57a.89.89 0 0 1 .007-.076c0-.02.002-.04.004-.061.015-.18.025-.36.031-.541.005-.085.01-.155.01-.224v-.056c.01-.169.01-.334.01-.504l.003-.086c.001-.027.004-.053.001-.084a.826.826 0 0 1-.003-.081c.004-.196 0-.392-.008-.588a17.183 17.183 0 0 0-.098-1.627c-.04-.459-.093-.887-.164-1.328l.763-.204-.78.104a11.076 11.076 0 0 0-.116-.652c-1.703-8.885-8.213-15.786-16.99-18.016-8.772-2.23-17.791.734-23.535 7.735a2.36 2.36 0 0 0-.149.185c-.243.3-.45.568-.648.846-.043.055-.052.071-.063.087a23.07 23.07 0 0 0-3.678 7.96.786.786 0 0 1-1.49.11c-2.792-6.8-2.329-14.471 1.272-21.047 3.59-6.558 9.78-11.068 16.984-12.374.22-.045.454-.089.697-.123a.978.978 0 0 1 .128-.02c.245-.042.492-.074.743-.103.2-.028.425-.052.654-.072.318-.036.663-.061 1.006-.076.236-.016.49-.033.74-.03.194-.008.422-.011.649-.007a15.653 15.653 0 0 1 .802.012c.07-.003.18.004.282.01.175.006.364.016.554.031.066.01.121.006.169.013.205.011.407.03.609.055.107.004.216.018.311.033a16.614 16.614 0 0 1 .72.091c.232.026.457.063.682.108.162.022.366.06.568.097l.106.02c.402.082.784.167 1.166.269.203.047.425.101.65.167.11.03.235.068.36.105l.236.068c.041.013.072.024.102.035a24.614 24.614 0 0 1 6.57 3.187l.33.236c.24.169.48.34.706.52l.043.03a38.46 38.46 0 0 1 .74.593l.184.152c.343.287.682.59 1.031.926.06.051.113.103.163.157a35.357 35.357 0 0 1 4.546 5.166l.145.202.044.061c.092.133.187.267.276.402a33.604 33.604 0 0 1 2.52 4.332c.493.997.94 2.036 1.325 3.08.053.134.108.284.163.435l.046.124c.025.057.045.117.064.18.157.442.306.909.447 1.373.026.072.054.176.083.28.074.248.146.505.217.774.056.196.113.41.166.628a40.327 40.327 0 0 1 .397 1.766l.097.528c.011.07.02.107.028.145l.013.068c.088.485.157.966.219 1.444.015.078.022.149.024.205.443 3.427.356 6.95-.26 10.473a34.694 34.694 0 0 1-3.23 9.678c-.06.122-.127.253-.194.381l-.105.198a39.28 39.28 0 0 1-.472.859 34.88 34.88 0 0 1-2.124 3.297l-.494.666c-.152.197-.303.384-.448.565a.783.783 0 0 1-.633.318z"/><path d="M27.09 67.807c2.17.528 4.383.833 6.616.913 1.656.07 3.438-.002 5.299-.216a33.32 33.32 0 0 0 17.911-7.961l.152-.134c.086-.073.171-.148.255-.226l.31-.282c.04-.036.078-.07.113-.108a32.73 32.73 0 0 0 1.665-1.664c.04-.043.07-.071.098-.105l.05-.055c.078-.08.159-.163.234-.245l.04-.044c.127-.142.256-.287.382-.434l.064-.068a7.37 7.37 0 0 0 .132-.157l.074-.088c.019-.025.04-.048.06-.071l.014-.02c.024-.032.059-.078.107-.128.085-.108.17-.215.262-.322.053-.07.127-.164.198-.26l.004-.006a.942.942 0 0 1 .05-.065 3.34 3.34 0 0 0 .2-.264l.149-.205a.783.783 0 0 1 .12-.315c.258-.39.505-.79.74-1.19a.787.787 0 0 1 .32-.302 22.693 22.693 0 0 0 2.134-4.82c.058-.168.098-.313.138-.457l.055-.193c.016-.054.025-.078.031-.108.052-.192.086-.338.12-.482.1-.376.177-.727.25-1.085l.02-.103c.032-.176.066-.354.091-.532.046-.236.078-.427.101-.628a.888.888 0 0 1 .01-.066c.011-.05.015-.103.021-.162a14.212 14.212 0 0 0 .067-.55.77.77 0 0 0 .013-.127.944.944 0 0 1 .006-.078 7.51 7.51 0 0 0 .05-.57.877.877 0 0 1 .007-.075l.004-.062c.015-.18.025-.36.031-.542.005-.084.01-.153.01-.223v-.056c.01-.169.01-.334.01-.504l.003-.085c.001-.028.004-.054.001-.085a.764.764 0 0 1-.003-.081c.004-.196 0-.392-.008-.588a17.322 17.322 0 0 0-.098-1.626 17.57 17.57 0 0 0-.17-1.384c-.003-.01-.016-.067-.017-.077-.03-.212-.07-.414-.11-.62-.994-5.208-3.535-9.625-7.554-13.136h-.001c-5.838-5.1-14.026-6.858-21.439-4.75 6.414 2.297 12.201 7.776 14.569 14.017a.737.737 0 0 1 .029.093c4.068 10.603.947 21.846-7.965 28.662-4.805 3.676-10.43 5.379-16.025 5.105zm7.865 2.51c-.444 0-.881-.009-1.31-.027a34.738 34.738 0 0 1-11.766-2.51c-.24-.099-.467-.196-.696-.294l-.193-.082a34.877 34.877 0 0 1-3.55-1.8.687.687 0 0 1-.054-.034 29.986 29.986 0 0 1-1.371-.84 35.479 35.479 0 0 1-2.743-1.967.786.786 0 0 1 .951-1.25c8.628 6.346 19.594 6.324 27.938-.06 8.364-6.398 11.278-16.967 7.423-26.925l-.007-.017a.772.772 0 0 1-.027-.09c-2.51-6.518-9.008-12.129-15.832-13.663a.787.787 0 0 1-.123-1.494c8.514-3.45 18.468-1.788 25.36 4.233 4.23 3.694 7.019 8.54 8.063 14.016.046.228.09.46.124.705a19.439 19.439 0 0 1 .194 1.52c.061.55.097 1.14.106 1.739.01.193.012.408.01.624.004.084.002.16 0 .236-.002.219-.004.404-.014.591 0 .1-.005.2-.01.294-.006.175-.016.363-.032.553 0 .063-.005.12-.012.169-.011.204-.03.406-.054.608a2.428 2.428 0 0 1-.032.304c-.017.162-.035.323-.059.485-.006.07-.016.16-.032.248a8.864 8.864 0 0 1-.11.68c-.021.157-.059.36-.097.56l-.02.112c-.082.401-.167.783-.269 1.166a11.688 11.688 0 0 1-.17.661l-.046.163c-.05.176-.1.353-.16.525a24.47 24.47 0 0 1-3.185 6.568l-.156.22c-.112.157-.223.315-.34.471a4.6 4.6 0 0 1-.259.342l-.002.004c-.08.11-.165.218-.25.325-.098.117-.172.21-.245.303a.876.876 0 0 1-.082.099c-.035.049-.067.086-.089.108a.858.858 0 0 1-.026.033l-.083.1c-.064.075-.128.152-.192.224-.008.01-.045.047-.053.056-.098.116-.234.268-.368.417l-.037.043c-.097.106-.191.203-.282.297a32.756 32.756 0 0 1-1.831 1.84c-.023.026-.088.087-.154.149l-.055.05-.267.241c-.081.077-.18.163-.28.25l-.13.114c-.063.058-.14.122-.217.186-4.114 3.55-9.116 6.119-14.453 7.421-1.297.318-2.64.562-4.106.748a37.404 37.404 0 0 1-4.238.253z"/><path d="M14.246 61.529c8.624 6.33 19.578 6.303 27.914-.075 7.72-5.905 10.798-15.362 8.196-24.614-.113.315-.233.63-.36.943l-.751-.239.73.293-.036.084c-.265.65-.54 1.25-.833 1.814-.01.024-.022.048-.034.072a15.64 15.64 0 0 1-.41.759 4.091 4.091 0 0 1-.166.294l-.07.117a2.394 2.394 0 0 1-.077.13 16.627 16.627 0 0 1-.765 1.203 5.458 5.458 0 0 1-.226.335c-2.686 3.87-6.68 7.049-10.986 8.756a.762.762 0 0 1-.155.044c-10.578 4.035-21.791.907-28.596-7.985-3.68-4.808-5.382-10.432-5.106-16.038a34.005 34.005 0 0 0-.866 5.575c-.03.486-.052.982-.068 1.478l-.008.49c-.012 1.565.08 3.133.275 4.663l.058.41a33.63 33.63 0 0 0 2 7.589c.025.048.046.099.062.15a34.304 34.304 0 0 0 1.569 3.366 33.297 33.297 0 0 0 6.587 8.556c.155.15.306.285.456.421a.848.848 0 0 1 .042.038l.049.047c.275.245.578.51.888.768.03.02.032.02.06.044.099.084.201.166.303.247.108.087.217.175.324.265zm14.007 6.307c-5.172 0-10.376-1.684-14.96-5.057a1.015 1.015 0 0 1-.046-.036c-.1-.086-.204-.169-.307-.252a16.082 16.082 0 0 1-.307-.25 31.222 31.222 0 0 1-1.031-.885l-.072-.068a15.313 15.313 0 0 1-.49-.451 34.828 34.828 0 0 1-6.888-8.951 35.925 35.925 0 0 1-1.662-3.57l-.008-.021-.02-.046a35.162 35.162 0 0 1-2.015-7.343c-.037-.205-.071-.43-.098-.66l-.057-.402A36.646 36.646 0 0 1 0 34.954l.009-.508c.017-.533.04-1.046.071-1.555.263-3.664 1.07-7.2 2.4-10.518a8.729 8.729 0 0 1 .207-.512c.14-.338.304-.712.477-1.084a5.2 5.2 0 0 1 .174-.376 35.165 35.165 0 0 1 2.784-4.847l.337-.476c.324-.46.681-.935 1.087-1.448a.786.786 0 0 1 1.25.954c-6.335 8.626-6.306 19.586.072 27.92 6.396 8.359 16.957 11.274 26.905 7.428a.826.826 0 0 1 .139-.04c3.978-1.607 7.664-4.555 10.128-8.105l.046-.066.043-.061c.05-.073.1-.147.147-.222a15.871 15.871 0 0 0 .737-1.159l.138-.233c.037-.062.076-.123.108-.19l.03-.057c.124-.213.246-.437.358-.656.01-.028.036-.08.05-.105.275-.53.535-1.097.796-1.735l.751.242-.729-.293.035-.084c.325-.806.61-1.65.836-2.485.062-.213.116-.417.165-.621a.785.785 0 0 1 1.497-.101c4.114 10.626 1 21.908-7.934 28.742-4.473 3.42-9.651 5.133-14.862 5.133zM171.922 78.34l-2.172-5.176-2.21 5.177h4.382zm.562 1.358h-5.507l-1.551 3.645h-1.59l5.953-13.553 5.797 13.553h-1.59l-1.512-3.645zM177.059 75.297h1.397v.853c.445-.66 1.144-1.047 1.996-1.047 1.455 0 2.037 1.028 2.191 1.299.777-1.222 1.881-1.3 2.424-1.3 2.385 0 2.618 1.998 2.618 3.141v5.1h-1.396v-4.886c0-.911-.117-2.113-1.435-2.113-1.61 0-1.784 1.551-1.784 2.52v4.48h-1.396v-4.77c0-.563.019-2.23-1.454-2.23-1.59 0-1.764 1.648-1.764 2.617v4.382h-1.397v-8.046zM193.657 77.158c-.194-.466-.601-.814-1.125-.814-.504 0-.969.29-.969.911 0 .582.388.756 1.299 1.144 1.163.484 1.706.853 2.016 1.241.349.427.427.853.427 1.299 0 1.687-1.221 2.637-2.773 2.637-.329 0-2.132-.039-2.811-2.055l1.202-.505c.155.427.62 1.32 1.629 1.32.911 0 1.318-.68 1.318-1.281 0-.756-.543-1.008-1.299-1.338-.969-.426-1.59-.737-1.958-1.183-.31-.387-.369-.775-.369-1.182 0-1.415.99-2.249 2.346-2.249.427 0 1.571.078 2.211 1.454l-1.144.601zM198.601 76.576v6.767h-1.396v-6.767h-.853v-1.28h.853v-2.908h1.396v2.909h1.396v1.28h-1.396zM207.074 78.438c-.232-1.26-1.183-2.094-2.366-2.094-1.182 0-2.151.892-2.365 2.094h4.731zm1.376 2.85c-.232.446-.581.93-.988 1.299-.737.66-1.648.99-2.676.99-1.939 0-3.975-1.223-3.975-4.209 0-2.404 1.474-4.265 3.897-4.265 1.571 0 2.56.775 3.045 1.473.504.718.794 1.959.756 3.025h-6.263c.02 1.667 1.164 2.734 2.559 2.734.66 0 1.183-.194 1.649-.582.368-.31.659-.717.833-1.105l1.163.64zM210.642 75.297h1.396v.872c.136-.214.737-1.066 1.823-1.066.426 0 .891.155 1.24.329l-.659 1.26a1.435 1.435 0 0 0-.814-.27c-.562 0-.912.232-1.125.504-.232.31-.465.853-.465 2.17v4.247h-1.396v-8.046zM216.846 79.31c0 1.725.97 3.025 2.638 3.025 1.706 0 2.675-1.416 2.675-3.005 0-2.075-1.435-2.986-2.675-2.986-1.377 0-2.638 1.008-2.638 2.966zm5.236-10.102h1.396v14.135h-1.396v-1.124c-.466.6-1.338 1.357-2.754 1.357-2.035 0-3.916-1.435-3.916-4.266 0-2.772 1.861-4.207 3.916-4.207 1.551 0 2.385.853 2.754 1.338v-7.233zM227.045 79.31c0 1.725.969 3.025 2.637 3.025 1.706 0 2.676-1.416 2.676-3.005 0-2.075-1.435-2.986-2.676-2.986-1.377 0-2.637 1.008-2.637 2.966zm5.235-4.013h1.396v8.046h-1.396v-1.124c-.465.6-1.338 1.357-2.753 1.357-2.036 0-3.917-1.435-3.917-4.266 0-2.772 1.862-4.207 3.917-4.207 1.55 0 2.384.853 2.753 1.338v-1.144zM236.313 75.297h1.396v.853c.445-.66 1.144-1.047 1.997-1.047 1.454 0 2.036 1.028 2.191 1.299.776-1.222 1.881-1.3 2.423-1.3 2.385 0 2.618 1.998 2.618 3.141v5.1h-1.396v-4.886c0-.911-.117-2.113-1.435-2.113-1.609 0-1.784 1.551-1.784 2.52v4.48h-1.396v-4.77c0-.563.019-2.23-1.454-2.23-1.59 0-1.764 1.648-1.764 2.617v4.382h-1.396v-8.046z"/></g></symbol></svg>